<?xml version="1.0" encoding="UTF-8"?>
<svg version="1.1" xmlns="http://www.w3.org/2000/svg" width="500" height="500">
<path d="M0 0 C165 0 330 0 500 0 C500 165 500 330 500 500 C335 500 170 500 0 500 C0 335 0 170 0 0 Z " fill="#2C583A" transform="translate(0,0)"/>
<path d="M0 0 C165 0 330 0 500 0 C500 53.13 500 106.26 500 161 C493.97358244 159.79471649 488.14956059 158.58681362 482.23046875 157.046875 C466.0177626 152.89858167 449.84654904 149.19219888 433.3125 146.5625 C432.56906342 146.443302 431.82562683 146.324104 431.05966187 146.20129395 C415.07017958 143.66379546 399.15539251 141.61318998 382.9375 141.6875 C381.64110596 141.69241455 380.34471191 141.6973291 379.0090332 141.70239258 C369.33988542 141.82043451 360.35959595 142.60928625 351 145 C350.33887207 145.16097168 349.67774414 145.32194336 348.99658203 145.48779297 C306.97459553 155.88097138 270.81256876 183.78735164 237.76757812 210.57519531 C233.11973503 214.32171635 228.40290107 217.98212394 223.703125 221.66308594 C222.04894679 222.96157789 220.39880569 224.26500799 218.75 225.5703125 C215.85431998 227.86116313 212.94906584 230.13940682 210.03759766 232.41015625 C208.59825237 233.53321118 207.16058647 234.65842005 205.72412109 235.78515625 C186.20934626 251.05520299 165.86873309 265.28258563 144 277 C143.26072266 277.39767578 142.52144531 277.79535156 141.75976562 278.20507812 C132.06336626 283.32754498 122.15064026 287.16199731 111.6875 290.4375 C110.63876709 290.7677417 109.59003418 291.0979834 108.50952148 291.43823242 C95.48421143 295.32922685 82.59554907 296.38450739 69.0625 296.3125 C67.98708954 296.30976578 67.98708954 296.30976578 66.88995361 296.30697632 C44.30536236 296.21096882 21.48754273 293.16251424 0 286 C0 191.62 0 97.24 0 0 Z " fill="#3E3E3D" transform="translate(0,0)"/>
</svg>
